<svg xmlns="http://www.w3.org/2000/svg">
  <symbol id="agent" viewBox="0 0 24 24">
    <path id="b1" d="M4 6.66667 A2.66667 2.66667 0 0 1 6.66667 4 L17.3333 4 A2.66667 2.66667 0 0 1 20 6.66667 L20 17.3333 A2.66667 2.66667 0 0 1 17.3333 20 L6.66667 20 A2.66667 2.66667 0 0 1 4 17.3333Z" fill="none" stroke="currentColor" stroke-width="2" stroke-linecap="round" stroke-linejoin="round" />
        <path id="d1" d="M12 10 C13.1046 10, 14 10.8954, 14 12 C14 13.1046, 13.1046 14, 12 14 C10.8954 14, 10 13.1046, 10 12 C10 10.8954, 10.8954 10, 12 10Z" fill="currentColor" stroke="currentColor" stroke-width="2" stroke-linecap="round" stroke-linejoin="round" />
  </symbol>
  <symbol id="approve" viewBox="0 0 24 24">
    <path id="m1" d="M5 13 L10 18 L19 6" fill="none" stroke="currentColor" stroke-width="2" stroke-linecap="round" stroke-linejoin="round" />
  </symbol>
  <symbol id="branch" viewBox="0 0 24 24">
    <path id="r1" d="M7 7 L7 17" fill="none" stroke="currentColor" stroke-width="2" stroke-linecap="round" stroke-linejoin="round" />
        <path id="d1" d="M7 12 A11 11 0 0 1 17 10" fill="none" stroke="currentColor" stroke-width="2" stroke-linecap="round" stroke-linejoin="round" />
        <path id="n1" d="M7 4 C8.65685 4, 10 5.34315, 10 7 C10 8.65685, 8.65685 10, 7 10 C5.34315 10, 4 8.65685, 4 7 C4 5.34315, 5.34315 4, 7 4Z" fill="none" stroke="currentColor" stroke-width="2" stroke-linecap="round" stroke-linejoin="round" />
        <path id="n2" d="M7 14 C8.65685 14, 10 15.3431, 10 17 C10 18.6569, 8.65685 20, 7 20 C5.34315 20, 4 18.6569, 4 17 C4 15.3431, 5.34315 14, 7 14Z" fill="none" stroke="currentColor" stroke-width="2" stroke-linecap="round" stroke-linejoin="round" />
        <path id="n3" d="M17 4 C18.6569 4, 20 5.34315, 20 7 C20 8.65685, 18.6569 10, 17 10 C15.3431 10, 14 8.65685, 14 7 C14 5.34315, 15.3431 4, 17 4Z" fill="none" stroke="currentColor" stroke-width="2" stroke-linecap="round" stroke-linejoin="round" />
  </symbol>
  <symbol id="channel" viewBox="0 0 24 24">
    <path id="a1" d="M9 4 L7 20" fill="none" stroke="currentColor" stroke-width="2" stroke-linecap="round" stroke-linejoin="round" />
        <path id="a2" d="M17 4 L15 20" fill="none" stroke="currentColor" stroke-width="2" stroke-linecap="round" stroke-linejoin="round" />
        <path id="b1" d="M4 9 L20 9" fill="none" stroke="currentColor" stroke-width="2" stroke-linecap="round" stroke-linejoin="round" />
        <path id="b2" d="M4 15 L20 15" fill="none" stroke="currentColor" stroke-width="2" stroke-linecap="round" stroke-linejoin="round" />
  </symbol>
  <symbol id="check-fail" viewBox="0 0 24 24">
    <path id="r1" d="M12 4 C16.4183 4, 20 7.58172, 20 12 C20 16.4183, 16.4183 20, 12 20 C7.58172 20, 4 16.4183, 4 12 C4 7.58172, 7.58172 4, 12 4Z" fill="none" stroke="currentColor" stroke-width="2" stroke-linecap="round" stroke-linejoin="round" />
        <path id="a1" d="M9 9 L15 15" fill="none" stroke="currentColor" stroke-width="2" stroke-linecap="round" stroke-linejoin="round" />
        <path id="a2" d="M15 9 L9 15" fill="none" stroke="currentColor" stroke-width="2" stroke-linecap="round" stroke-linejoin="round" />
  </symbol>
  <symbol id="check-pass" viewBox="0 0 24 24">
    <path id="r1" d="M12 4 C16.4183 4, 20 7.58172, 20 12 C20 16.4183, 16.4183 20, 12 20 C7.58172 20, 4 16.4183, 4 12 C4 7.58172, 7.58172 4, 12 4Z" fill="none" stroke="currentColor" stroke-width="2" stroke-linecap="round" stroke-linejoin="round" />
        <path id="m1" d="M8 12 L11 15 L16 9" fill="none" stroke="currentColor" stroke-width="2" stroke-linecap="round" stroke-linejoin="round" />
  </symbol>
  <symbol id="check-pending" viewBox="0 0 24 24">
    <path id="r1" d="M12 4 C16.4183 4, 20 7.58172, 20 12 C20 16.4183, 16.4183 20, 12 20 C7.58172 20, 4 16.4183, 4 12 C4 7.58172, 7.58172 4, 12 4Z" fill="none" stroke="currentColor" stroke-width="2" stroke-linecap="round" stroke-linejoin="round" />
        <path id="h1" d="M12 8 L12 12 L15 12" fill="none" stroke="currentColor" stroke-width="2" stroke-linecap="round" stroke-linejoin="round" />
  </symbol>
  <symbol id="chevron" viewBox="0 0 24 24">
    <path id="m1" d="M9 5 L16 12 L9 19" fill="none" stroke="currentColor" stroke-width="2" stroke-linecap="round" stroke-linejoin="round" />
  </symbol>
  <symbol id="close" viewBox="0 0 24 24">
    <path id="a1" d="M6 6 L18 18" fill="none" stroke="currentColor" stroke-width="2" stroke-linecap="round" stroke-linejoin="round" />
        <path id="a2" d="M18 6 L6 18" fill="none" stroke="currentColor" stroke-width="2" stroke-linecap="round" stroke-linejoin="round" />
  </symbol>
  <symbol id="commit" viewBox="0 0 24 24">
    <path id="l1" d="M12 4 L12 9" fill="none" stroke="currentColor" stroke-width="2" stroke-linecap="round" stroke-linejoin="round" />
        <path id="l2" d="M12 15 L12 20" fill="none" stroke="currentColor" stroke-width="2" stroke-linecap="round" stroke-linejoin="round" />
        <path id="n1" d="M12 9 C13.6569 9, 15 10.3431, 15 12 C15 13.6569, 13.6569 15, 12 15 C10.3431 15, 9 13.6569, 9 12 C9 10.3431, 10.3431 9, 12 9Z" fill="none" stroke="currentColor" stroke-width="2" stroke-linecap="round" stroke-linejoin="round" />
  </symbol>
  <symbol id="cycle" viewBox="0 0 24 24">
    <path id="r1" d="M14 4.5 A8 8 0 0 1 20 12 A8 8 0 0 1 12 20 A8 8 0 0 1 4 12 A8 8 0 0 1 9 5" fill="none" stroke="currentColor" stroke-width="2" stroke-linecap="round" stroke-linejoin="round" />
        <path id="ah" d="M5 6 L9 5 L10 9" fill="none" stroke="currentColor" stroke-width="2" stroke-linecap="round" stroke-linejoin="round" />
  </symbol>
  <symbol id="database" viewBox="0 0 24 24">
    <path id="t1" d="M12 4 C15.866 4, 19 5.11929, 19 6.5 C19 7.88071, 15.866 9, 12 9 C8.13401 9, 5 7.88071, 5 6.5 C5 5.11929, 8.13401 4, 12 4Z" fill="none" stroke="currentColor" stroke-width="2" stroke-linecap="round" stroke-linejoin="round" />
        <path id="s1" d="M19 6.5 L19 17.5 A7 2.5 0 0 1 5 17.5 L5 6.5" fill="none" stroke="currentColor" stroke-width="2" stroke-linecap="round" stroke-linejoin="round" />
        <path id="bd1" d="M19 10.5 A7 2.5 0 0 1 5 10.5" fill="none" stroke="currentColor" stroke-width="2" stroke-linecap="round" stroke-linejoin="round" />
        <path id="bd2" d="M19 14 A7 2.5 0 0 1 5 14" fill="none" stroke="currentColor" stroke-width="2" stroke-linecap="round" stroke-linejoin="round" />
  </symbol>
  <symbol id="doc" viewBox="0 0 24 24">
    <path id="b1" d="M6 3 L14 3 L18 7 L18 21 L6 21Z" fill="none" stroke="currentColor" stroke-width="2" stroke-linecap="round" stroke-linejoin="round" />
        <path id="f1" d="M14 3 L14 7 L18 7" fill="none" stroke="currentColor" stroke-width="2" stroke-linecap="round" stroke-linejoin="round" />
        <path id="line1" d="M9 13 L15 13" fill="none" stroke="currentColor" stroke-width="2" stroke-linecap="round" stroke-linejoin="round" />
        <path id="line2" d="M9 17 L15 17" fill="none" stroke="currentColor" stroke-width="2" stroke-linecap="round" stroke-linejoin="round" />
  </symbol>
  <symbol id="edit" viewBox="0 0 24 24">
    <path id="b1" d="M15 5 L19 9 L9 19 L5 19 L5 15Z" fill="none" stroke="currentColor" stroke-width="2" stroke-linecap="round" stroke-linejoin="round" />
        <path id="t1" d="M13 7 L17 11" fill="none" stroke="currentColor" stroke-width="2" stroke-linecap="round" stroke-linejoin="round" />
  </symbol>
  <symbol id="external-link" viewBox="0 0 24 24">
    <path id="b1" d="M12 5 L5 5 L5 19 L19 19 L19 12" fill="none" stroke="currentColor" stroke-width="2" stroke-linecap="round" stroke-linejoin="round" />
        <path id="ar" d="M13 5 L19 5 L19 11" fill="none" stroke="currentColor" stroke-width="2" stroke-linecap="round" stroke-linejoin="round" />
        <path id="sh" d="M19 5 L11 13" fill="none" stroke="currentColor" stroke-width="2" stroke-linecap="round" stroke-linejoin="round" />
  </symbol>
  <symbol id="file" viewBox="0 0 24 24">
    <path id="b1" d="M6 3 L14 3 L19 8 L19 21 L6 21Z" fill="none" stroke="currentColor" stroke-width="2" stroke-linecap="round" stroke-linejoin="round" />
        <path id="f1" d="M14 3 L14 8 L19 8" fill="none" stroke="currentColor" stroke-width="2" stroke-linecap="round" stroke-linejoin="round" />
  </symbol>
  <symbol id="folder" viewBox="0 0 24 24">
    <path id="b1" d="M5.5 18 A1.5 1.5 0 0 1 4 16.5 L4 8.5 A1.5 1.5 0 0 1 5.5 7 L8 7 A1 1 0 0 1 9 8 L9 8 A1 1 0 0 1 10 9 L18.5 9 A1.5 1.5 0 0 1 20 10.5 L20 16.5 A1.5 1.5 0 0 1 18.5 18Z" fill="none" stroke="currentColor" stroke-width="2" stroke-linecap="round" stroke-linejoin="round" />
  </symbol>
  <symbol id="gate" viewBox="0 0 24 24">
    <path id="b1" d="M5 11.75 C5 11.3358, 5.52233 11, 6.16667 11 L17.8333 11 C18.4777 11, 19 11.3358, 19 11.75 L19 19.25 C19 19.6642, 18.4777 20, 17.8333 20 L6.16667 20 C5.52233 20, 5 19.6642, 5 19.25Z" fill="none" stroke="currentColor" stroke-width="2" stroke-linecap="round" stroke-linejoin="round" />
        <path id="s1" d="M8 11 L8 9 A4 4 0 0 1 16 9 L16 11" fill="none" stroke="currentColor" stroke-width="2" stroke-linecap="round" stroke-linejoin="round" />
  </symbol>
  <symbol id="human" viewBox="0 0 24 24">
    <path id="h1" d="M12 4 C14.2091 4, 16 5.79086, 16 8 C16 10.2091, 14.2091 12, 12 12 C9.79086 12, 8 10.2091, 8 8 C8 5.79086, 9.79086 4, 12 4Z" fill="none" stroke="currentColor" stroke-width="2" stroke-linecap="round" stroke-linejoin="round" />
        <path id="b1" d="M5 20 L5 17 L9 14 L15 14 L19 17 L19 20" fill="none" stroke="currentColor" stroke-width="2" stroke-linecap="round" stroke-linejoin="round" />
  </symbol>
  <symbol id="inbox" viewBox="0 0 24 24">
    <path id="t1" d="M4 4 L4 15 L8 15 L9 18 L15 18 L16 15 L20 15 L20 4Z" fill="none" stroke="currentColor" stroke-width="2" stroke-linecap="round" stroke-linejoin="round" />
        <path id="i1" d="M4 15 L9 15 L10 18" fill="none" stroke="currentColor" stroke-width="2" stroke-linecap="round" stroke-linejoin="round" />
  </symbol>
  <symbol id="issue" viewBox="0 0 24 24">
    <path id="r1" d="M12 4 C16.4183 4, 20 7.58172, 20 12 C20 16.4183, 16.4183 20, 12 20 C7.58172 20, 4 16.4183, 4 12 C4 7.58172, 7.58172 4, 12 4Z" fill="none" stroke="currentColor" stroke-width="2" stroke-linecap="round" stroke-linejoin="round" />
  </symbol>
  <symbol id="kebab" viewBox="0 0 24 24">
    <path id="dot1" d="M12 4 C12.8284 4, 13.5 4.67157, 13.5 5.5 C13.5 6.32843, 12.8284 7, 12 7 C11.1716 7, 10.5 6.32843, 10.5 5.5 C10.5 4.67157, 11.1716 4, 12 4Z" fill="currentColor" stroke="currentColor" stroke-width="2" stroke-linecap="round" stroke-linejoin="round" />
        <path id="dot2" d="M12 10.5 C12.8284 10.5, 13.5 11.1716, 13.5 12 C13.5 12.8284, 12.8284 13.5, 12 13.5 C11.1716 13.5, 10.5 12.8284, 10.5 12 C10.5 11.1716, 11.1716 10.5, 12 10.5Z" fill="currentColor" stroke="currentColor" stroke-width="2" stroke-linecap="round" stroke-linejoin="round" />
        <path id="dot3" d="M12 17 C12.8284 17, 13.5 17.6716, 13.5 18.5 C13.5 19.3284, 12.8284 20, 12 20 C11.1716 20, 10.5 19.3284, 10.5 18.5 C10.5 17.6716, 11.1716 17, 12 17Z" fill="currentColor" stroke="currentColor" stroke-width="2" stroke-linecap="round" stroke-linejoin="round" />
  </symbol>
  <symbol id="link" viewBox="0 0 24 24">
    <path id="b1" d="M9 12 L15 12" fill="none" stroke="currentColor" stroke-width="2" stroke-linecap="round" stroke-linejoin="round" />
        <path id="lh" d="M10 16 A6 4 0 0 1 10 8" fill="none" stroke="currentColor" stroke-width="2" stroke-linecap="round" stroke-linejoin="round" />
        <path id="rh" d="M14 8 A6 4 0 0 1 14 16" fill="none" stroke="currentColor" stroke-width="2" stroke-linecap="round" stroke-linejoin="round" />
  </symbol>
  <symbol id="merge" viewBox="0 0 24 24">
    <path id="r1" d="M7 7 L7 17" fill="none" stroke="currentColor" stroke-width="2" stroke-linecap="round" stroke-linejoin="round" />
        <path id="c1" d="M17 10 A11 11 0 0 1 7 15" fill="none" stroke="currentColor" stroke-width="2" stroke-linecap="round" stroke-linejoin="round" />
        <path id="n1" d="M7 4 C8.65685 4, 10 5.34315, 10 7 C10 8.65685, 8.65685 10, 7 10 C5.34315 10, 4 8.65685, 4 7 C4 5.34315, 5.34315 4, 7 4Z" fill="none" stroke="currentColor" stroke-width="2" stroke-linecap="round" stroke-linejoin="round" />
        <path id="n2" d="M7 14 C8.65685 14, 10 15.3431, 10 17 C10 18.6569, 8.65685 20, 7 20 C5.34315 20, 4 18.6569, 4 17 C4 15.3431, 5.34315 14, 7 14Z" fill="none" stroke="currentColor" stroke-width="2" stroke-linecap="round" stroke-linejoin="round" />
        <path id="n3" d="M17 4 C18.6569 4, 20 5.34315, 20 7 C20 8.65685, 18.6569 10, 17 10 C15.3431 10, 14 8.65685, 14 7 C14 5.34315, 15.3431 4, 17 4Z" fill="none" stroke="currentColor" stroke-width="2" stroke-linecap="round" stroke-linejoin="round" />
  </symbol>
  <symbol id="message" viewBox="0 0 24 24">
    <path id="b1" d="M4 6.375 C4 5.61561, 4.89543 5, 6 5 L18 5 C19.1046 5, 20 5.61561, 20 6.375 L20 14.625 C20 15.3844, 19.1046 16, 18 16 L6 16 C4.89543 16, 4 15.3844, 4 14.625Z" fill="none" stroke="currentColor" stroke-width="2" stroke-linecap="round" stroke-linejoin="round" />
        <path id="t1" d="M8 16 L7 20 L11 16" fill="none" stroke="currentColor" stroke-width="2" stroke-linecap="round" stroke-linejoin="round" />
  </symbol>
  <symbol id="nav-chat" viewBox="0 0 24 24">
    <path id="bk" d="M11 4.83333 C11 4.3731, 11.4197 4, 11.9375 4 L19.0625 4 C19.5803 4, 20 4.3731, 20 4.83333 L20 11.1667 C20 11.6269, 19.5803 12, 19.0625 12 L11.9375 12 C11.4197 12, 11 11.6269, 11 11.1667Z" fill="none" stroke="currentColor" stroke-width="2" stroke-linecap="round" stroke-linejoin="round" />
        <path id="fr" d="M4 9.83333 C4 9.3731, 4.51301 9, 5.14583 9 L13.8542 9 C14.487 9, 15 9.3731, 15 9.83333 L15 16.1667 C15 16.6269, 14.487 17, 13.8542 17 L5.14583 17 C4.51301 17, 4 16.6269, 4 16.1667Z" fill="none" stroke="currentColor" stroke-width="2" stroke-linecap="round" stroke-linejoin="round" />
        <path id="t1" d="M7 17 L6 20 L10 17" fill="none" stroke="currentColor" stroke-width="2" stroke-linecap="round" stroke-linejoin="round" />
  </symbol>
  <symbol id="nav-ci" viewBox="0 0 24 24">
    <path id="r1" d="M12 3 C16.9706 3, 21 7.02944, 21 12 C21 16.9706, 16.9706 21, 12 21 C7.02944 21, 3 16.9706, 3 12 C3 7.02944, 7.02944 3, 12 3Z" fill="none" stroke="currentColor" stroke-width="2" stroke-linecap="round" stroke-linejoin="round" />
        <path id="p1" d="M10 8 L16 12 L10 16Z" fill="none" stroke="currentColor" stroke-width="2" stroke-linecap="round" stroke-linejoin="round" />
  </symbol>
  <symbol id="nav-code" viewBox="0 0 24 24">
    <path id="left1" d="M9 7 L4 12 L9 17" fill="none" stroke="currentColor" stroke-width="2" stroke-linecap="round" stroke-linejoin="round" />
        <path id="right1" d="M15 7 L20 12 L15 17" fill="none" stroke="currentColor" stroke-width="2" stroke-linecap="round" stroke-linejoin="round" />
  </symbol>
  <symbol id="nav-issues" viewBox="0 0 24 24">
    <path id="r1" d="M12 3 C16.9706 3, 21 7.02944, 21 12 C21 16.9706, 16.9706 21, 12 21 C7.02944 21, 3 16.9706, 3 12 C3 7.02944, 7.02944 3, 12 3Z" fill="none" stroke="currentColor" stroke-width="2" stroke-linecap="round" stroke-linejoin="round" />
        <path id="d1" d="M12 10 C13.1046 10, 14 10.8954, 14 12 C14 13.1046, 13.1046 14, 12 14 C10.8954 14, 10 13.1046, 10 12 C10 10.8954, 10.8954 10, 12 10Z" fill="currentColor" stroke="currentColor" stroke-width="2" stroke-linecap="round" stroke-linejoin="round" />
  </symbol>
  <symbol id="nav-knowledge" viewBox="0 0 24 24">
    <path id="s1" d="M12 5 L12 19" fill="none" stroke="currentColor" stroke-width="2" stroke-linecap="round" stroke-linejoin="round" />
        <path id="lp" d="M12 5 L7 4 L4 5 L4 18 L7 17 L12 18" fill="none" stroke="currentColor" stroke-width="2" stroke-linecap="round" stroke-linejoin="round" />
        <path id="rp" d="M12 5 L17 4 L20 5 L20 18 L17 17 L12 18" fill="none" stroke="currentColor" stroke-width="2" stroke-linecap="round" stroke-linejoin="round" />
  </symbol>
  <symbol id="priority" viewBox="0 0 24 24">
    <path id="bar1" d="M6 18 L6 14" fill="none" stroke="currentColor" stroke-width="2" stroke-linecap="round" stroke-linejoin="round" />
        <path id="bar2" d="M12 18 L12 10" fill="none" stroke="currentColor" stroke-width="2" stroke-linecap="round" stroke-linejoin="round" />
        <path id="bar3" d="M18 18 L18 6" fill="none" stroke="currentColor" stroke-width="2" stroke-linecap="round" stroke-linejoin="round" />
  </symbol>
  <symbol id="pull-request" viewBox="0 0 24 24">
    <path id="lr" d="M7 8 L7 16" fill="none" stroke="currentColor" stroke-width="2" stroke-linecap="round" stroke-linejoin="round" />
        <path id="rr" d="M17 8 L17 16" fill="none" stroke="currentColor" stroke-width="2" stroke-linecap="round" stroke-linejoin="round" />
        <path id="ah" d="M14 11 L17 8 L20 11" fill="none" stroke="currentColor" stroke-width="2" stroke-linecap="round" stroke-linejoin="round" />
        <path id="n1" d="M7 4 C8.65685 4, 10 5.34315, 10 7 C10 8.65685, 8.65685 10, 7 10 C5.34315 10, 4 8.65685, 4 7 C4 5.34315, 5.34315 4, 7 4Z" fill="none" stroke="currentColor" stroke-width="2" stroke-linecap="round" stroke-linejoin="round" />
        <path id="n2" d="M7 14 C8.65685 14, 10 15.3431, 10 17 C10 18.6569, 8.65685 20, 7 20 C5.34315 20, 4 18.6569, 4 17 C4 15.3431, 5.34315 14, 7 14Z" fill="none" stroke="currentColor" stroke-width="2" stroke-linecap="round" stroke-linejoin="round" />
        <path id="n3" d="M17 14 C18.6569 14, 20 15.3431, 20 17 C20 18.6569, 18.6569 20, 17 20 C15.3431 20, 14 18.6569, 14 17 C14 15.3431, 15.3431 14, 17 14Z" fill="none" stroke="currentColor" stroke-width="2" stroke-linecap="round" stroke-linejoin="round" />
  </symbol>
  <symbol id="reject" viewBox="0 0 24 24">
    <path id="a1" d="M6 6 L18 18" fill="none" stroke="currentColor" stroke-width="2" stroke-linecap="round" stroke-linejoin="round" />
        <path id="a2" d="M18 6 L6 18" fill="none" stroke="currentColor" stroke-width="2" stroke-linecap="round" stroke-linejoin="round" />
  </symbol>
  <symbol id="repo" viewBox="0 0 24 24">
    <path id="b1" d="M5 3.75 C5 3.33579, 5.26117 3, 5.58333 3 L18.4167 3 C18.7388 3, 19 3.33579, 19 3.75 L19 20.25 C19 20.6642, 18.7388 21, 18.4167 21 L5.58333 21 C5.26117 21, 5 20.6642, 5 20.25Z" fill="none" stroke="currentColor" stroke-width="2" stroke-linecap="round" stroke-linejoin="round" />
        <path id="s1" d="M9 3 L9 21" fill="none" stroke="currentColor" stroke-width="2" stroke-linecap="round" stroke-linejoin="round" />
        <path id="m1" d="M13 7 L16 7" fill="none" stroke="currentColor" stroke-width="2" stroke-linecap="round" stroke-linejoin="round" />
  </symbol>
  <symbol id="rerun" viewBox="0 0 24 24">
    <path id="a1" d="M15 4.5 A8 8 0 0 1 20 12 A8 8 0 0 1 12 20 A8 8 0 0 1 4 12 A8 8 0 0 1 10 5" fill="none" stroke="currentColor" stroke-width="2" stroke-linecap="round" stroke-linejoin="round" />
        <path id="ah" d="M19 6 L15 4.5 L14 9" fill="none" stroke="currentColor" stroke-width="2" stroke-linecap="round" stroke-linejoin="round" />
  </symbol>
  <symbol id="roadmap" viewBox="0 0 24 24">
    <path id="bar1" d="M4 7 L14 7" fill="none" stroke="currentColor" stroke-width="2" stroke-linecap="round" stroke-linejoin="round" />
        <path id="bar2" d="M10 12 L20 12" fill="none" stroke="currentColor" stroke-width="2" stroke-linecap="round" stroke-linejoin="round" />
        <path id="bar3" d="M6 17 L16 17" fill="none" stroke="currentColor" stroke-width="2" stroke-linecap="round" stroke-linejoin="round" />
  </symbol>
  <symbol id="run" viewBox="0 0 24 24">
    <path id="b1" d="M3 6 A3 3 0 0 1 6 3 L18 3 A3 3 0 0 1 21 6 L21 18 A3 3 0 0 1 18 21 L6 21 A3 3 0 0 1 3 18Z" fill="none" stroke="currentColor" stroke-width="2" stroke-linecap="round" stroke-linejoin="round" />
        <path id="p1" d="M10 8 L16 12 L10 16Z" fill="none" stroke="currentColor" stroke-width="2" stroke-linecap="round" stroke-linejoin="round" />
  </symbol>
  <symbol id="search" viewBox="0 0 24 24">
    <path id="l1" d="M10 4 C13.3137 4, 16 6.68629, 16 10 C16 13.3137, 13.3137 16, 10 16 C6.68629 16, 4 13.3137, 4 10 C4 6.68629, 6.68629 4, 10 4Z" fill="none" stroke="currentColor" stroke-width="2" stroke-linecap="round" stroke-linejoin="round" />
        <path id="h1" d="M15 15 L20 20" fill="none" stroke="currentColor" stroke-width="2" stroke-linecap="round" stroke-linejoin="round" />
  </symbol>
  <symbol id="settings" viewBox="0 0 24 24">
    <path id="ln1" d="M4 7 L20 7" fill="none" stroke="currentColor" stroke-width="2" stroke-linecap="round" stroke-linejoin="round" />
        <path id="ln2" d="M4 12 L20 12" fill="none" stroke="currentColor" stroke-width="2" stroke-linecap="round" stroke-linejoin="round" />
        <path id="ln3" d="M4 17 L20 17" fill="none" stroke="currentColor" stroke-width="2" stroke-linecap="round" stroke-linejoin="round" />
        <path id="knob1" d="M15 5 C16.1046 5, 17 5.89543, 17 7 C17 8.10457, 16.1046 9, 15 9 C13.8954 9, 13 8.10457, 13 7 C13 5.89543, 13.8954 5, 15 5Z" fill="currentColor" stroke="currentColor" stroke-width="2" stroke-linecap="round" stroke-linejoin="round" />
        <path id="knob2" d="M9 10 C10.1046 10, 11 10.8954, 11 12 C11 13.1046, 10.1046 14, 9 14 C7.89543 14, 7 13.1046, 7 12 C7 10.8954, 7.89543 10, 9 10Z" fill="currentColor" stroke="currentColor" stroke-width="2" stroke-linecap="round" stroke-linejoin="round" />
        <path id="knob3" d="M17 15 C18.1046 15, 19 15.8954, 19 17 C19 18.1046, 18.1046 19, 17 19 C15.8954 19, 15 18.1046, 15 17 C15 15.8954, 15.8954 15, 17 15Z" fill="currentColor" stroke="currentColor" stroke-width="2" stroke-linecap="round" stroke-linejoin="round" />
  </symbol>
  <symbol id="sub-issue" viewBox="0 0 24 24">
    <path id="e1" d="M7 4 L7 14 L13 14" fill="none" stroke="currentColor" stroke-width="2" stroke-linecap="round" stroke-linejoin="round" />
        <path id="r1" d="M17 11 C18.6569 11, 20 12.3431, 20 14 C20 15.6569, 18.6569 17, 17 17 C15.3431 17, 14 15.6569, 14 14 C14 12.3431, 15.3431 11, 17 11Z" fill="none" stroke="currentColor" stroke-width="2" stroke-linecap="round" stroke-linejoin="round" />
  </symbol>
  <symbol id="tag" viewBox="0 0 24 24">
    <path id="b1" d="M4.70711 11.7071 A1 1 0 0 1 4.70711 10.2929 L10.2929 4.70711 A1 1 0 0 1 12 4 L19 4 A1 1 0 0 1 20 5 L20 12 A1 1 0 0 1 19.2929 13.7071 L13.7071 19.2929 A1 1 0 0 1 12.2929 19.2929Z" fill="none" stroke="currentColor" stroke-width="2" stroke-linecap="round" stroke-linejoin="round" />
        <path id="h1" d="M15.5 7 C16.3284 7, 17 7.67157, 17 8.5 C17 9.32843, 16.3284 10, 15.5 10 C14.6716 10, 14 9.32843, 14 8.5 C14 7.67157, 14.6716 7, 15.5 7Z" fill="none" stroke="currentColor" stroke-width="2" stroke-linecap="round" stroke-linejoin="round" />
  </symbol>
  <symbol id="team" viewBox="0 0 24 24">
    <path id="h1" d="M7.5 5 C9.433 5, 11 6.567, 11 8.5 C11 10.433, 9.433 12, 7.5 12 C5.567 12, 4 10.433, 4 8.5 C4 6.567, 5.567 5, 7.5 5Z" fill="none" stroke="currentColor" stroke-width="2" stroke-linecap="round" stroke-linejoin="round" />
        <path id="b1" d="M2 19 L2 17 L5 14 L10 14 L13 17 L13 19" fill="none" stroke="currentColor" stroke-width="2" stroke-linecap="round" stroke-linejoin="round" />
        <path id="h2" d="M17.5 5 C19.433 5, 21 6.567, 21 8.5 C21 10.433, 19.433 12, 17.5 12 C15.567 12, 14 10.433, 14 8.5 C14 6.567, 15.567 5, 17.5 5Z" fill="none" stroke="currentColor" stroke-width="2" stroke-linecap="round" stroke-linejoin="round" />
        <path id="b2" d="M15 14 L18 14 L21 17 L21 19" fill="none" stroke="currentColor" stroke-width="2" stroke-linecap="round" stroke-linejoin="round" />
  </symbol>
</svg>
